<svg width="25" height="25" fill="none" xmlns="http://www.w3.org/2000/svg"><path fill-rule="evenodd" clip-rule="evenodd" d="M21.408.133a2.96 2.96 0 012.94 2.976l-.118 18.296a2.96 2.96 0 01-2.977 2.939l-5.035-.033.059-9.122 3.15.02.624-3.903-3.749-.024.016-2.535c.007-1.07.537-2.108 2.216-2.097l1.705.01.021-3.325s-1.545-.274-3.024-.284c-3.087-.02-5.117 1.839-5.139 5.226l-.019 2.978-3.431-.022-.026 3.907 3.432.022-.058 9.122-9.037-.058A2.96 2.96 0 01.019 21.25L.136 2.954A2.96 2.96 0 013.113.015l18.295.118z" fill="#fff"/></svg>