<svg width="25" height="25" fill="none" xmlns="http://www.w3.org/2000/svg"><path fill-rule="evenodd" clip-rule="evenodd" d="M22.042.598a2.96 2.96 0 012.939 2.977l-.117 18.295a2.96 2.96 0 01-2.977 2.939l-18.295-.117a2.96 2.96 0 01-2.94-2.977L.77 3.42A2.96 2.96 0 013.747.48l18.295.118zM12.87 4.37c-2.248-.015-2.53-.007-3.412.028-.881.034-1.484.17-2.012.371a4.057 4.057 0 00-1.471.945 4.057 4.057 0 00-.964 1.46c-.208.525-.352 1.126-.398 2.006-.046.883-.057 1.164-.071 3.412-.015 2.247-.007 2.53.027 3.412.035.881.171 1.483.372 2.011.208.546.488 1.01.945 1.472.457.463.917.749 1.46.964.525.208 1.126.352 2.006.398.883.045 1.164.057 3.412.071 2.247.015 2.53.007 3.412-.028.881-.034 1.484-.17 2.011-.372a4.057 4.057 0 001.472-.945c.463-.457.749-.916.964-1.46.208-.524.352-1.125.397-2.006.046-.882.058-1.164.072-3.411.015-2.248.007-2.53-.028-3.412-.034-.881-.17-1.484-.372-2.012a4.057 4.057 0 00-.945-1.471 4.057 4.057 0 00-1.46-.964c-.524-.208-1.125-.352-2.006-.398-.882-.046-1.164-.057-3.411-.071zm-.01 1.49c2.21.015 2.472.025 3.344.07.806.042 1.244.18 1.535.295.385.153.66.334.947.625.288.292.465.568.613.956.112.292.244.731.275 1.538.034.873.041 1.135.027 3.344-.014 2.21-.024 2.472-.07 3.344-.042.806-.18 1.244-.294 1.535-.153.385-.334.66-.625.947a2.565 2.565 0 01-.956.613c-.292.112-.731.244-1.538.275-.873.034-1.135.041-3.345.027-2.21-.014-2.471-.024-3.343-.07-.807-.042-1.244-.18-1.535-.294a2.563 2.563 0 01-.948-.626 2.563 2.563 0 01-.613-.955c-.111-.292-.243-.731-.275-1.538-.034-.873-.04-1.135-.026-3.345.014-2.21.024-2.47.07-3.343.041-.807.179-1.244.294-1.535a2.58 2.58 0 01.625-.948c.292-.287.568-.465.956-.612.292-.112.731-.244 1.538-.276.873-.034 1.135-.04 3.344-.026zm-.016 2.535a4.25 4.25 0 10-.054 8.5 4.25 4.25 0 00.054-8.5zm-.045 7.008a2.758 2.758 0 11.036-5.517 2.758 2.758 0 01-.036 5.517zm5.457-7.14a.993.993 0 11-1.987-.014.993.993 0 011.987.013z" fill="#fff"/></svg>