<svg width="27" height="27" viewBox="0 0 27 27" fill="none" xmlns="http://www.w3.org/2000/svg">
<path d="M9.39205 10.1818V16H8.19886L5.88352 12.642H5.84659V16H4.44034V10.1818H5.65057L7.94034 13.5341H7.98864V10.1818H9.39205ZM10.2763 16V10.1818H14.3331V11.3239H11.6825V12.517H14.1257V13.6619H11.6825V14.858H14.3331V16H10.2763ZM16.6087 16L14.9155 10.1818H16.4695L17.3473 13.9943H17.3956L18.3984 10.1818H19.6655L20.6683 14.0028H20.7166L21.5973 10.1818H23.1484L21.4581 16H20.103L19.0547 12.4716H19.0092L17.9609 16H16.6087Z" fill="white"/>
<circle cx="13.5" cy="13.5" r="12.5" stroke="white" stroke-width="2"/>
</svg>
