<svg width="27" height="27" fill="none" xmlns="http://www.w3.org/2000/svg"><path d="M5.347 12.642V15.5H4.94v-4.818h.447l2.14 3.134.15.218h.812v-3.352h.403V15.5h-.43l-2.167-3.142-.149-.216h-.799v.5zm12.532 1.48l.905-3.44h.496l.905 3.448.098.373h.832l.089-.388.791-3.433h.488l-1.4 4.818h-.607l-.942-3.17-.106-.358h-.792l-.106.357-.942 3.171h-.604l-1.402-4.818h.49l.788 3.425.09.387h.831l.098-.373zm-6.196-1.105h1.943v.145h-2.443v2.196h2.65v.142h-3.057v-4.818h3.057v.142h-2.65v2.193h.5z" stroke="#fff"/><circle cx="13.5" cy="13.5" r="12.5" stroke="#fff" stroke-width="2"/></svg>