<svg width="27" height="27" viewBox="0 0 27 27" fill="none" xmlns="http://www.w3.org/2000/svg">
<path d="M5.34662 12.642V15.5H4.94037V10.6818H5.38661L7.52749 13.8161L7.67639 14.0341H7.94037H7.98866H8.48866V13.5341V10.6818H8.89207V15.5H8.46147L6.29518 12.3582L6.14613 12.142H5.88355H5.84662H5.34662V12.642ZM17.8792 14.1215L18.784 10.6818H19.2798L20.1847 14.1298L20.2826 14.5028H20.6684H20.7166H21.1145L21.2039 14.1151L21.9952 10.6818H22.4825L21.0827 15.5H20.4761L19.534 12.3292L19.4278 11.9716H19.0547H19.0093H18.6362L18.53 12.3292L17.5879 15.5H16.9839L15.5818 10.6818H16.0715L16.8601 14.1065L16.9494 14.4943H17.3473H17.3956H17.7811L17.8792 14.1215ZM11.6826 13.017H13.6257V13.1619H11.6826H11.1826V13.6619V14.858V15.358H11.6826H13.8331V15.5H10.7763V10.6818H13.8331V10.8239H11.6826H11.1826V11.3239V12.517V13.017H11.6826Z" stroke="white"/>
<circle cx="13.5" cy="13.5" r="12.5" stroke="white" stroke-width="2"/>
</svg>
