<svg width="19" height="25" fill="none" xmlns="http://www.w3.org/2000/svg"><path fill-rule="evenodd" clip-rule="evenodd" d="M17.042.035l-10.06 2.26C6.442 2.416 6 2.97 6 3.525v1.49h-.016v12.582c0 .549-.438 1.097-.972 1.22l-2.761.627C1.013 19.725 0 20.997 0 22.27v.224A2.501 2.501 0 002.498 25h.961a3.464 3.464 0 003.46-3.47v-8.685h.017V8.91c0-.438.35-.868.778-.954l9.147-1.859a.579.579 0 01.693.569v7.925c0 .549-.437 1.096-.972 1.217l-2.845.639c-1.23.276-2.237 1.537-2.237 2.802v.232a2.51 2.51 0 002.507 2.514h.998a3.499 3.499 0 003.495-3.503V2.007h-.002v-.8C18.498.49 18.005 0 17.351 0a1.46 1.46 0 00-.309.035z" fill="#fff"/></svg>