<svg width="23" height="31" fill="none" xmlns="http://www.w3.org/2000/svg"><path d="M5.791 30.955c-1.118-.16-3.66-2.197-4.793-3.195l1.598-1.798c.999-.998 2.596-2.995 4.194-3.395h7.19c1.397.2 1.797 1.797.399 2.596l-3.794.8.798.798h4.394c.799-.6 4.64-4.342 4.993-4.593 1.398-.999 2.796.4 1.997 1.597-1.598 1.598-4.913 4.953-5.392 5.592-.48.64-.999.8-1.199.8H7.19c-.998 0-1.309.81-1.398.798zM13.58 2.596a2.596 2.596 0 11-5.192 0 2.596 2.596 0 015.192 0zm6.79.999a2.397 2.397 0 11-4.793 0 2.397 2.397 0 014.793 0zm-14.379 0a2.397 2.397 0 11-4.793 0 2.397 2.397 0 014.793 0zm.799 5.192a2.796 2.796 0 012.796-2.796h2.396a2.796 2.796 0 012.796 2.796v2.796a2.796 2.796 0 01-2.796 2.796H9.587a2.796 2.796 0 01-2.796-2.796V8.787z" fill="#fff"/><path d="M8.388 13.58h5.192v7.19h-1.997l-.599-4.194-.6 4.194H8.389v-7.19zm8.387-4.393c0-1.545-.399-2.796-.399-2.796h2.796a2.796 2.796 0 012.796 2.796v2.796a2.796 2.796 0 01-2.796 2.795l-3.595-.2s1.198-1.051 1.198-2.595V9.187z" fill="#fff"/><path d="M15.577 14.579l5.193-.6v7.19h-1.997l-.6-4.194-.599 4.194h-1.997v-6.59zM5.192 9.187c0-1.545.4-2.796.4-2.796H2.796A2.796 2.796 0 000 9.187v2.796a2.796 2.796 0 002.796 2.795l3.595-.2s-1.199-1.051-1.199-2.595V9.187z" fill="#fff"/><path d="M6.39 14.579l-5.192-.6v7.19h1.997l.6-4.194.599 4.194H6.39v-6.59z" fill="#fff"/></svg>