<svg width="20" height="14" fill="none" xmlns="http://www.w3.org/2000/svg"><path fill-rule="evenodd" clip-rule="evenodd" d="M9.884 9.924c-.054.001-1.357.034-2.337.941-.941.87-.938 2.25-.936 2.37H0s-.08-1.969 1.137-2.653c1.068-.601 2.097-.792 2.715-.906.2-.038.357-.067.458-.1l.007-.002c.383-.123.79-.256.79-.782V8.72c0-.464 0-.53-.123-.597-.25-.136-.397-.347-.43-.51a6.793 6.793 0 01-.064-.56c-.03-.319-.06-.645-.106-.71-.03-.042-.068-.054-.107-.067-.065-.022-.132-.044-.161-.2a4.042 4.042 0 01-.041-.29.986.986 0 00-.054-.274c-.047-.095-.212-.701-.11-.91.05-.102.122-.119.179-.132.047-.011.083-.02.089-.072a3.19 3.19 0 00-.047-.417c-.082-.562-.22-1.528-.048-2.013.222-.621.46-.763.688-.899l.08-.048c.093-.058.173-.148.267-.255.162-.183.366-.413.744-.601.598-.298 1.479-.125 1.778 0 .046.02.114.043.196.073.449.16 1.326.476 1.473.993l.017.024c.064.086.287.39.402.713.173.485.035 1.448-.046 2.01a3.04 3.04 0 00-.047.42c.005.052.041.061.088.072.057.013.129.03.179.132.102.209-.064.815-.11.91a.96.96 0 00-.054.276 4.09 4.09 0 01-.04.288c-.03.156-.097.178-.162.2-.039.013-.077.025-.106.067-.047.065-.077.392-.107.711-.02.22-.04.434-.065.558-.032.164-.18.375-.429.51-.124.068-.124.134-.123.593v.077c0 .526.407.658.789.782l.007.003c.103.032.264.063.47.102.162.03.352.066.563.112-.21.066-.426.12-.653.133zm9.368 1.37c.78.721.748 1.941.748 1.941H7.198s-.032-1.22.748-1.941c.827-.765 1.95-.785 1.95-.785 1.254-.072 2.312-.951 2.312-.951v-1s-1.515-.43-2.03-.952c0 0 .337-.837.424-1.139.086-.298.08-.684.041-1.312l-.021-.313c-.046-.649-.11-1.565-.01-2.065.118-.588.46-1.538 1.01-1.832.552-.294 1.199-.148 1.199-.148s.385-.28.925-.393c.42-.09 1.137.003 1.51.258.375.255.883.718 1.083 1.401.227.776.231 1.702.145 2.33-.048.349-.013.76.013 1.037.018.2.117.748.279 1.244.188.581.443.997.443.997s-.207.396-.946.628c-.785.245-1.283.259-1.283.259v1s1.058.88 2.312.95c0 0 1.123.02 1.95.786z" fill="#DADADA"/></svg>