<svg width="14" height="12" fill="none" xmlns="http://www.w3.org/2000/svg"><path fill-rule="evenodd" clip-rule="evenodd" d="M12.46 8.376c-.318-.157-1.883-.91-2.175-1.015-.292-.104-.504-.156-.716.156-.212.312-.823 1.015-1.008 1.223-.186.208-.372.234-.69.078-.319-.156-1.345-.486-2.56-1.548-.947-.827-1.586-1.848-1.772-2.16-.186-.312-.02-.48.14-.636.143-.14.318-.364.477-.546.16-.182.212-.312.319-.52.106-.209.053-.39-.027-.547-.08-.156-.716-1.69-.982-2.315-.258-.608-.52-.525-.716-.535C2.564.001 2.352 0 2.14 0c-.213 0-.557.078-.85.39C1 .702.177 1.457.177 2.991c0 1.535 1.141 3.018 1.3 3.226.16.208 2.246 3.357 5.44 4.708.76.32 1.352.513 1.815.656.763.238 1.457.204 2.005.124.612-.09 1.884-.754 2.15-1.483.265-.728.265-1.352.185-1.482-.08-.13-.292-.208-.61-.364z" fill="#DADADA"/></svg>