<svg width="25" height="25" fill="none" xmlns="http://www.w3.org/2000/svg"><path fill-rule="evenodd" clip-rule="evenodd" d="M21.724.365a2.96 2.96 0 012.94 2.977l-.118 18.295a2.96 2.96 0 01-2.977 2.94l-18.295-.118a2.96 2.96 0 01-2.939-2.977L.452 3.187A2.96 2.96 0 013.43.247l18.295.118zM9.588 20.364c6.428.04 9.977-5.263 10.007-9.88 0-.152.002-.304-.004-.449a7.16 7.16 0 001.758-1.8c-.625.27-1.3.455-2.011.537a3.493 3.493 0 001.549-1.925 7.076 7.076 0 01-2.223.834 3.478 3.478 0 00-2.544-1.118 3.495 3.495 0 00-3.427 4.269 9.914 9.914 0 01-7.18-3.7 3.505 3.505 0 00-.482 1.752A3.48 3.48 0 006.57 11.8a3.434 3.434 0 01-1.578-.445v.043a3.498 3.498 0 002.783 3.446 3.48 3.48 0 01-1.58.048 3.49 3.49 0 003.245 2.449 7.024 7.024 0 01-5.184 1.409 9.736 9.736 0 005.331 1.614z" fill="#fff"/></svg>