<svg width="352" height="127" fill="none" xmlns="http://www.w3.org/2000/svg"><path d="M5.26 81.486c5.857-5.11 23.388-12.703 46.666-2.19 29.097 13.141 58.194-16.974 70.272-22.997 12.078-6.023 23.607-2.19 29.097 10.95 2.013 5.476 6.807 17.632 9.882 22.45 3.843 6.023 11.651 6.795 24.156-26.282 12.627-33.4 9.333-32.305 12.627-44.351 3.294-12.046 14.823-25.188 14.274 7.665-.549 32.853-2.745 39.424-4.941 54.208-2.266 15.252-2.745 32.305 2.745 39.971 5.49 7.665 25.803-55.85 27.45-60.23 1.647-4.381 12.627-27.378 10.98-4.381-1.647 22.997-6.039 39.97-2.196 48.184 3.843 8.213 11.529 1.643 20.862-9.308 9.333-10.951 9.882-15.331 21.96-8.761 12.078 6.57 7.686 14.236 27.45 10.951s26.352-4.38 30.195-3.285" stroke="url(#paint0_linear_1_3)" stroke-width="10.348" stroke-linecap="round"/><path d="M12.562 121.362l-3.378-13.813v14.966c0 .829-.182 1.45-.546 1.864-.354.414-.829.621-1.423.621-.575 0-1.044-.202-1.408-.606-.364-.414-.546-1.041-.546-1.879V105.36c0-.946.24-1.582.718-1.908.48-.335 1.126-.503 1.94-.503h1.323c.795 0 1.37.074 1.724.222.365.148.633.414.805.799.173.384.37 1.01.59 1.878l3.06 11.876 3.062-11.876c.22-.868.417-1.494.59-1.878.172-.385.435-.651.79-.799.364-.148.943-.222 1.739-.222h1.322c.814 0 1.461.168 1.94.503.48.326.719.962.719 1.908v17.155c0 .829-.182 1.45-.546 1.864-.355.414-.834.621-1.438.621-.565 0-1.03-.207-1.394-.621-.364-.414-.546-1.035-.546-1.864v-14.966l-3.377 13.813c-.22.897-.403 1.558-.546 1.982-.134.414-.388.793-.762 1.138-.374.345-.891.518-1.552.518-.498 0-.92-.113-1.265-.34a2.31 2.31 0 01-.805-.843 5.198 5.198 0 01-.46-1.139c-.105-.424-.215-.863-.33-1.316zm17.433-5.694v-10.426c0-.888.191-1.553.575-1.997.393-.443.905-.665 1.538-.665.66 0 1.183.222 1.566.665.393.444.59 1.109.59 1.997v10.663c0 1.212.129 2.228.387 3.046.269.809.738 1.44 1.409 1.893.67.444 1.61.666 2.817.666 1.667 0 2.845-.454 3.535-1.361.69-.917 1.035-2.302 1.035-4.156v-10.751c0-.897.192-1.563.575-1.997.383-.443.896-.665 1.538-.665s1.16.222 1.552.665c.402.434.604 1.1.604 1.997v10.426c0 1.696-.163 3.111-.49 4.245-.315 1.133-.919 2.129-1.81 2.987a7.012 7.012 0 01-2.673 1.597c-1.016.335-2.204.503-3.564.503-1.62 0-3.014-.177-4.183-.532-1.169-.365-2.122-.922-2.86-1.672-.737-.759-1.279-1.725-1.624-2.898-.345-1.183-.517-2.593-.517-4.23zm21.774 3.904l10.822-13.325h-9.3c-.65 0-1.144-.147-1.48-.443-.325-.296-.488-.685-.488-1.169 0-.502.163-.907.489-1.212.335-.316.828-.474 1.48-.474h11.986c1.552 0 2.328.745 2.328 2.234 0 .709-.129 1.276-.388 1.7-.258.424-.78 1.11-1.566 2.056l-10.118 12.393h11.153c.66 0 1.154.143 1.48.429.326.276.489.666.489 1.169 0 .522-.163.936-.49 1.242-.325.305-.818.458-1.48.458H53.005c-.929 0-1.628-.212-2.098-.636-.47-.433-.704-1.01-.704-1.73 0-.246.038-.473.115-.68.077-.207.177-.4.302-.577.134-.187.316-.419.546-.695.23-.286.431-.533.604-.74zm35.599-1.449c0 1.311-.33 2.49-.992 3.535-.651 1.045-1.61 1.863-2.874 2.455-1.265.591-2.764.887-4.499.887-2.079 0-3.794-.404-5.145-1.213a7.023 7.023 0 01-2.342-2.322c-.595-.976-.892-1.922-.892-2.839 0-.533.178-.986.532-1.361.364-.384.824-.576 1.38-.576.45 0 .829.147 1.135.443.316.296.585.735.805 1.316.269.691.556 1.267.862 1.731.317.463.757.848 1.323 1.153.565.296 1.308.444 2.227.444 1.265 0 2.29-.301 3.076-.902.795-.611 1.193-1.371 1.193-2.278 0-.719-.216-1.301-.647-1.745-.421-.453-.972-.798-1.653-1.035-.67-.237-1.571-.488-2.702-.754-1.513-.365-2.783-.789-3.808-1.272-1.016-.493-1.825-1.159-2.429-1.997-.594-.848-.891-1.898-.891-3.15 0-1.193.316-2.253.948-3.179.633-.927 1.548-1.637 2.746-2.13 1.197-.503 2.606-.754 4.225-.754 1.293 0 2.41.167 3.349.503.948.325 1.734.764 2.357 1.316.622.542 1.078 1.114 1.365 1.715.287.602.431 1.188.431 1.76 0 .523-.182.996-.546 1.42-.355.414-.8.621-1.337.621-.488 0-.862-.123-1.12-.37-.25-.256-.523-.67-.82-1.242-.383-.818-.843-1.454-1.38-1.908-.536-.463-1.398-.695-2.587-.695-1.101 0-1.993.252-2.673.754-.67.493-1.006 1.09-1.006 1.79 0 .434.115.808.345 1.124.23.315.546.587.949.813.402.227.81.405 1.221.533.412.128 1.093.315 2.041.562 1.188.286 2.261.601 3.22.946.967.345 1.786.764 2.457 1.257a5.022 5.022 0 011.581 1.879c.383.749.575 1.671.575 2.765zm17.304-11.55h-4.657v15.75c0 .907-.196 1.583-.589 2.026-.393.434-.9.651-1.523.651-.633 0-1.15-.222-1.553-.666-.392-.443-.589-1.114-.589-2.011v-15.75h-4.656c-.729 0-1.27-.163-1.624-.488-.355-.335-.532-.774-.532-1.316 0-.562.182-1.006.546-1.332.374-.325.91-.488 1.61-.488h13.567c.737 0 1.284.168 1.638.503.364.335.546.774.546 1.317 0 .542-.182.981-.546 1.316-.364.325-.91.488-1.638.488zm10.448 8.785h-1.495v6.965c0 .917-.196 1.592-.589 2.026-.393.434-.905.651-1.538.651-.68 0-1.207-.227-1.58-.68-.374-.454-.561-1.119-.561-1.997v-16.682c0-.946.206-1.632.618-2.056.412-.424 1.078-.636 1.998-.636h6.941c.958 0 1.778.045 2.458.134.68.078 1.293.246 1.84.502a5.318 5.318 0 011.753 1.228 5.289 5.289 0 011.15 1.863c.268.7.402 1.445.402 2.233 0 1.617-.445 2.909-1.336 3.875-.882.966-2.223 1.652-4.025 2.056.757.414 1.481 1.025 2.171 1.834a17.92 17.92 0 011.839 2.588c.546.907.968 1.73 1.265 2.47.307.729.46 1.232.46 1.508 0 .286-.091.572-.273.858a1.8 1.8 0 01-.719.651 2.186 2.186 0 01-1.063.251c-.479 0-.882-.118-1.208-.355a3.326 3.326 0 01-.848-.872c-.23-.355-.546-.878-.948-1.568l-1.71-2.928c-.614-1.075-1.165-1.893-1.653-2.455-.479-.562-.968-.947-1.466-1.154-.498-.207-1.126-.31-1.883-.31zm2.443-9.111h-3.938v5.96h3.823c1.026 0 1.888-.088 2.587-.266.7-.187 1.232-.498 1.596-.931.373-.444.56-1.051.56-1.82 0-.601-.148-1.128-.445-1.582a2.698 2.698 0 00-1.236-1.035c-.499-.217-1.481-.326-2.947-.326zm26.89.089h-9.614v5.324h8.853c.651 0 1.135.153 1.451.459.326.295.489.69.489 1.183 0 .493-.158.897-.474 1.213-.317.305-.805.458-1.466.458h-8.853v6.167h9.945c.671 0 1.174.163 1.509.488.345.316.517.74.517 1.272 0 .513-.172.932-.517 1.257-.335.316-.838.473-1.509.473h-11.598c-.93 0-1.6-.212-2.012-.636-.403-.424-.604-1.109-.604-2.055v-16.298c0-.631.091-1.144.273-1.538.182-.404.465-.695.848-.873.393-.187.891-.281 1.495-.281h11.267c.681 0 1.184.158 1.509.474.336.305.503.71.503 1.212 0 .513-.167.927-.503 1.243-.325.305-.828.458-1.509.458zm19.23 15.839l-1.006-2.721h-8.566l-1.006 2.78c-.393 1.085-.728 1.819-1.006 2.204-.278.375-.733.562-1.365.562-.537 0-1.011-.202-1.423-.606-.412-.405-.618-.863-.618-1.376 0-.296.048-.601.144-.917.096-.315.254-.754.474-1.316l5.39-14.079.546-1.449c.22-.572.45-1.046.69-1.42a2.84 2.84 0 01.963-.902c.402-.237.895-.355 1.48-.355.594 0 1.087.118 1.48.355.403.226.724.522.963.887.249.365.455.759.618 1.183.173.414.388.971.647 1.671l5.504 13.991c.431 1.065.647 1.839.647 2.322 0 .503-.206.966-.618 1.39a1.967 1.967 0 01-1.466.621c-.335 0-.623-.064-.862-.192a1.742 1.742 0 01-.604-.488c-.163-.217-.34-.543-.532-.976-.182-.444-.34-.833-.474-1.169zm-8.451-6.019h6.295l-3.176-8.947-3.119 8.947zm23.269 5.206l-3.378-13.813v14.966c0 .829-.182 1.45-.546 1.864-.354.414-.829.621-1.423.621-.575 0-1.044-.202-1.408-.606-.364-.414-.546-1.041-.546-1.879V105.36c0-.946.239-1.582.718-1.908.479-.335 1.126-.503 1.94-.503h1.323c.795 0 1.37.074 1.724.222.364.148.633.414.805.799.173.384.369 1.01.589 1.878l3.062 11.876 3.061-11.876c.22-.868.417-1.494.589-1.878.173-.385.436-.651.791-.799.364-.148.943-.222 1.739-.222h1.322c.814 0 1.461.168 1.94.503.479.326.719.962.719 1.908v17.155c0 .829-.182 1.45-.547 1.864-.354.414-.833.621-1.437.621-.565 0-1.03-.207-1.394-.621-.364-.414-.546-1.035-.546-1.864v-14.966l-3.377 13.813c-.221.897-.403 1.558-.547 1.982-.134.414-.388.793-.761 1.138-.374.345-.891.518-1.552.518-.499 0-.92-.113-1.265-.34a2.312 2.312 0 01-.805-.843 5.189 5.189 0 01-.46-1.139c-.105-.424-.215-.863-.33-1.316z" fill="#fff"/><defs><linearGradient id="paint0_linear_1_3" x1="370.346" y1="77.653" x2="-27.13" y2="75.451" gradientUnits="userSpaceOnUse"><stop stop-color="#295BCC"/><stop offset=".5" stop-color="#59B097"/><stop offset="1" stop-color="#66A03A"/></linearGradient></defs></svg>