<?xml version="1.0" encoding="utf-8"?><svg xmlns="http://www.w3.org/2000/svg" xmlns:xlink="http://www.w3.org/1999/xlink"><symbol viewBox="0 0 22 20" id="devices" xmlns="http://www.w3.org/2000/svg"><path d="M8 17h11a2 2 0 002-2V3a2 2 0 00-2-2H5a2 2 0 00-2 2v3" stroke-width="2"/><rect x="1" y="6" width="7" height="13" rx="1" stroke-width="2"/></symbol><symbol viewBox="0 0 25 25" id="fb" xmlns="http://www.w3.org/2000/svg"><path fill-rule="evenodd" clip-rule="evenodd" d="M21.408.133a2.96 2.96 0 012.94 2.976l-.118 18.296a2.96 2.96 0 01-2.977 2.939l-5.035-.033.059-9.122 3.15.02.624-3.903-3.749-.024.016-2.535c.007-1.07.537-2.108 2.216-2.097l1.705.01.021-3.325s-1.545-.274-3.024-.284c-3.087-.02-5.117 1.839-5.139 5.226l-.019 2.978-3.431-.022-.026 3.907 3.432.022-.058 9.122-9.037-.058A2.96 2.96 0 01.019 21.25L.136 2.954A2.96 2.96 0 013.113.015l18.295.118z"/></symbol><symbol viewBox="0 0 13 15" id="home" xmlns="http://www.w3.org/2000/svg"><path fill-rule="evenodd" clip-rule="evenodd" d="M7.346.149a.588.588 0 00-.783 0L1.338 4.804C.782 5.3.85 6.085 1.298 6.528v7.026c0 .325.263.588.588.588h10.142a.588.588 0 00.588-.588V6.523c.43-.431.504-1.182 0-1.676v-1.62a.849.849 0 10-1.697 0v.105L7.346.15zm3.572 8.11H8.655v4.118h2.263V8.26z"/></symbol><symbol viewBox="0 0 25 25" id="insta" xmlns="http://www.w3.org/2000/svg"><path fill-rule="evenodd" clip-rule="evenodd" d="M22.042.598a2.96 2.96 0 012.939 2.977l-.117 18.295a2.96 2.96 0 01-2.977 2.939l-18.295-.117a2.96 2.96 0 01-2.94-2.977L.77 3.42A2.96 2.96 0 013.747.48l18.295.118zM12.87 4.37c-2.248-.015-2.53-.007-3.412.028-.881.034-1.484.17-2.012.371a4.057 4.057 0 00-1.471.945 4.057 4.057 0 00-.964 1.46c-.208.525-.352 1.126-.398 2.006-.046.883-.057 1.164-.071 3.412-.015 2.247-.007 2.53.027 3.412.035.881.171 1.483.372 2.011.208.546.488 1.01.945 1.472.457.463.917.749 1.46.964.525.208 1.126.352 2.006.398.883.045 1.164.057 3.412.071 2.247.015 2.53.007 3.412-.028.881-.034 1.484-.17 2.011-.372a4.057 4.057 0 001.472-.945c.463-.457.749-.916.964-1.46.208-.524.352-1.125.397-2.006.046-.882.058-1.164.072-3.411.015-2.248.007-2.53-.028-3.412-.034-.881-.17-1.484-.372-2.012a4.057 4.057 0 00-.945-1.471 4.057 4.057 0 00-1.46-.964c-.524-.208-1.125-.352-2.006-.398-.882-.046-1.164-.057-3.411-.071zm-.01 1.49c2.21.015 2.472.025 3.344.07.806.042 1.244.18 1.535.295.385.153.66.334.947.625.288.292.465.568.613.956.112.292.244.731.275 1.538.034.873.041 1.135.027 3.344-.014 2.21-.024 2.472-.07 3.344-.042.806-.18 1.244-.294 1.535-.153.385-.334.66-.625.947a2.565 2.565 0 01-.956.613c-.292.112-.731.244-1.538.275-.873.034-1.135.041-3.345.027-2.21-.014-2.471-.024-3.343-.07-.807-.042-1.244-.18-1.535-.294a2.563 2.563 0 01-.948-.626 2.563 2.563 0 01-.613-.955c-.111-.292-.243-.731-.275-1.538-.034-.873-.04-1.135-.026-3.345.014-2.21.024-2.47.07-3.343.041-.807.179-1.244.294-1.535.153-.385.334-.66.625-.948.292-.287.568-.465.956-.612.292-.112.731-.244 1.538-.276.873-.034 1.135-.04 3.344-.026zm-.016 2.535a4.25 4.25 0 10-.054 8.5 4.25 4.25 0 00.054-8.5zm-.045 7.008a2.758 2.758 0 11.036-5.517 2.758 2.758 0 01-.036 5.517zm5.457-7.14a.993.993 0 11-1.987-.014.993.993 0 011.987.013z"/></symbol><symbol viewBox="0 0 29 31" id="microphone" xmlns="http://www.w3.org/2000/svg"><path d="M8.242 26.669c-.345.758-1.666 2.204-4.138 1.655C2.242 27.91 1.414 29.979 1 30.6"/><path d="M22.313 10.943l-4.139-2.897-10.139 16.76 2.07 1.449 12.208-15.312zM18.937 3.718a4.552 4.552 0 115.403 6.856l-3.117-2.201-3.117-2.202a4.53 4.53 0 01.831-2.453z"/></symbol><symbol viewBox="0 0 27 27" id="new" xmlns="http://www.w3.org/2000/svg"><path d="M9.392 10.182V16H8.2l-2.315-3.358h-.037V16H4.44v-5.818h1.21l2.29 3.352h.049v-3.352h1.403zM10.276 16v-5.818h4.057v1.142h-2.65v1.193h2.443v1.145h-2.444v1.196h2.651V16h-4.057zm6.333 0l-1.694-5.818h1.555l.877 3.812h.049l1.002-3.812h1.268l1.002 3.82h.049l.88-3.82h1.551L21.458 16h-1.355l-1.048-3.528h-.046L17.961 16h-1.352z"/><circle cx="13.5" cy="13.5" r="12.5" stroke-width="2"/></symbol><symbol viewBox="0 0 19 25" id="note" xmlns="http://www.w3.org/2000/svg"><path fill-rule="evenodd" clip-rule="evenodd" d="M17.042.035l-10.06 2.26C6.442 2.416 6 2.97 6 3.525v1.49h-.016v12.582c0 .549-.438 1.097-.972 1.22l-2.761.627C1.013 19.725 0 20.997 0 22.27v.224A2.501 2.501 0 002.498 25h.961a3.464 3.464 0 003.46-3.47v-8.685h.017V8.91c0-.438.35-.868.778-.954l9.147-1.859a.579.579 0 01.693.569v7.925c0 .549-.437 1.096-.972 1.217l-2.845.639c-1.23.276-2.237 1.537-2.237 2.802v.232a2.51 2.51 0 002.507 2.514h.998a3.499 3.499 0 003.495-3.503V2.007h-.002v-.8C18.498.49 18.005 0 17.351 0a1.46 1.46 0 00-.309.035z"/></symbol><symbol viewBox="0 0 30 26" id="notes" xmlns="http://www.w3.org/2000/svg"><path fill-rule="evenodd" clip-rule="evenodd" d="M23 1H7v1h16V1zM6 3h18v1H6V3zM5 5h20v20H5V5zm10.5 8.482v3.812A3.706 3.706 0 0111.794 21a.794.794 0 01-.794-.794V19.13a1.3 1.3 0 011.102-1.285l2.05-.315A1 1 0 0015 16.54V10.794a1 1 0 01.79-.978l3.605-.778a.5.5 0 01.605.49V11.7a.5.5 0 01-.415.493l-3.427.593a.8.8 0 00-.658.695z"/></symbol><symbol viewBox="0 0 23 31" id="people" xmlns="http://www.w3.org/2000/svg"><path d="M5.791 30.955c-1.118-.16-3.66-2.197-4.793-3.195l1.598-1.798c.999-.998 2.596-2.995 4.194-3.395h7.19c1.397.2 1.797 1.797.399 2.596l-3.794.8.798.798h4.394c.799-.6 4.64-4.342 4.993-4.593 1.398-.999 2.796.4 1.997 1.597-1.598 1.598-4.913 4.953-5.392 5.592-.48.64-.999.8-1.199.8H7.19c-.998 0-1.309.81-1.398.798zM13.58 2.596a2.596 2.596 0 11-5.192 0 2.596 2.596 0 015.192 0zM20.37 3.595a2.397 2.397 0 11-4.793 0 2.397 2.397 0 014.793 0zM5.991 3.595a2.397 2.397 0 11-4.793 0 2.397 2.397 0 014.793 0zM6.79 8.787a2.796 2.796 0 012.796-2.796h2.396a2.796 2.796 0 012.796 2.796v2.796a2.796 2.796 0 01-2.796 2.796H9.587a2.796 2.796 0 01-2.796-2.796V8.787z"/><path d="M8.388 13.58h5.192v7.19h-1.997l-.599-4.194-.6 4.194H8.389v-7.19zM16.775 9.187c0-1.545-.399-2.796-.399-2.796h2.796a2.796 2.796 0 012.796 2.796v2.796a2.796 2.796 0 01-2.796 2.795l-3.595-.2s1.198-1.051 1.198-2.595V9.187z"/><path d="M15.577 14.579l5.193-.6v7.19h-1.997l-.6-4.194-.599 4.194h-1.997v-6.59zM5.192 9.187c0-1.545.4-2.796.4-2.796H2.796A2.796 2.796 0 000 9.187v2.796a2.796 2.796 0 002.796 2.795l3.595-.2s-1.199-1.051-1.199-2.595V9.187z"/><path d="M6.39 14.579l-5.192-.6v7.19h1.997l.6-4.194.599 4.194H6.39v-6.59z"/></symbol><symbol viewBox="0 0 20 14" id="people2" xmlns="http://www.w3.org/2000/svg"><path fill-rule="evenodd" clip-rule="evenodd" d="M9.884 9.924c-.054.001-1.357.034-2.337.941-.941.87-.938 2.25-.936 2.37H0s-.08-1.969 1.137-2.653c1.068-.601 2.097-.792 2.715-.906.2-.038.357-.067.458-.1l.007-.002c.383-.123.79-.256.79-.782V8.72c0-.464 0-.53-.123-.597-.25-.136-.397-.347-.43-.51a6.793 6.793 0 01-.064-.56c-.03-.319-.06-.645-.106-.71-.03-.042-.068-.054-.107-.067-.065-.022-.132-.044-.161-.2a4.042 4.042 0 01-.041-.29.986.986 0 00-.054-.274c-.047-.095-.212-.701-.11-.91.05-.102.122-.119.179-.132.047-.011.083-.02.089-.072.005-.051-.017-.206-.047-.417-.082-.562-.22-1.528-.048-2.013.222-.621.46-.763.688-.899l.08-.048c.093-.058.173-.148.267-.255.162-.183.366-.413.744-.601.598-.298 1.479-.125 1.778 0 .046.02.114.043.196.073.449.16 1.326.476 1.473.993l.017.024c.064.086.287.39.402.713.173.485.035 1.448-.046 2.01a3.04 3.04 0 00-.047.42c.005.052.041.061.088.072.057.013.129.03.179.132.102.209-.064.815-.11.91-.028.055-.04.153-.054.276a4.09 4.09 0 01-.04.288c-.03.156-.097.178-.162.2-.039.013-.077.025-.106.067-.047.065-.077.392-.107.711-.02.22-.04.434-.065.558-.032.164-.18.375-.429.51-.124.068-.124.134-.123.593v.077c0 .526.407.658.789.782l.007.003c.103.032.264.063.47.102.162.03.352.066.563.112-.21.066-.426.12-.653.133zm9.368 1.37c.78.721.748 1.941.748 1.941H7.198s-.032-1.22.748-1.941c.827-.765 1.95-.785 1.95-.785 1.254-.072 2.312-.951 2.312-.951v-1s-1.515-.43-2.03-.952c0 0 .337-.837.424-1.139.086-.298.08-.684.041-1.312l-.021-.313c-.046-.649-.11-1.565-.01-2.065.118-.588.46-1.538 1.01-1.832.552-.294 1.199-.148 1.199-.148s.385-.28.925-.393c.42-.09 1.137.003 1.51.258.375.255.883.718 1.083 1.401.227.776.231 1.702.145 2.33-.048.349-.013.76.013 1.037.018.2.117.748.279 1.244.188.581.443.997.443.997s-.207.396-.946.628c-.785.245-1.283.259-1.283.259v1s1.058.88 2.312.95c0 0 1.123.02 1.95.786z"/></symbol><symbol viewBox="0 0 14 12" id="tel" xmlns="http://www.w3.org/2000/svg"><path fill-rule="evenodd" clip-rule="evenodd" d="M12.46 8.376c-.318-.157-1.883-.91-2.175-1.015-.292-.104-.504-.156-.716.156-.212.312-.823 1.015-1.008 1.223-.186.208-.372.234-.69.078-.319-.156-1.345-.486-2.56-1.548-.947-.827-1.586-1.848-1.772-2.16-.186-.312-.02-.48.14-.636.143-.14.318-.364.477-.546.16-.182.212-.312.319-.52.106-.209.053-.39-.027-.547-.08-.156-.716-1.69-.982-2.315-.258-.608-.52-.525-.716-.535C2.564.001 2.352 0 2.14 0c-.213 0-.557.078-.85.39C1 .702.177 1.457.177 2.991c0 1.535 1.141 3.018 1.3 3.226.16.208 2.246 3.357 5.44 4.708.76.32 1.352.513 1.815.656.763.238 1.457.204 2.005.124.612-.09 1.884-.754 2.15-1.483.265-.728.265-1.352.185-1.482-.08-.13-.292-.208-.61-.364z"/></symbol><symbol viewBox="0 0 25 25" id="tw" xmlns="http://www.w3.org/2000/svg"><path fill-rule="evenodd" clip-rule="evenodd" d="M21.724.365a2.96 2.96 0 012.94 2.977l-.118 18.295a2.96 2.96 0 01-2.977 2.94l-18.295-.118a2.96 2.96 0 01-2.939-2.977L.452 3.187A2.96 2.96 0 013.43.247l18.295.118zM9.588 20.364c6.428.04 9.977-5.263 10.007-9.88 0-.152.002-.304-.004-.449a7.16 7.16 0 001.758-1.8c-.625.27-1.3.455-2.011.537a3.493 3.493 0 001.549-1.925 7.076 7.076 0 01-2.223.834 3.478 3.478 0 00-2.544-1.118 3.495 3.495 0 00-3.427 4.269 9.914 9.914 0 01-7.18-3.7 3.505 3.505 0 00-.482 1.752A3.48 3.48 0 006.57 11.8a3.434 3.434 0 01-1.578-.445v.043a3.498 3.498 0 002.783 3.446 3.48 3.48 0 01-1.58.048 3.49 3.49 0 003.245 2.449 7.024 7.024 0 01-5.184 1.409 9.736 9.736 0 005.331 1.614z"/></symbol></svg>